<?xml version="1.0" encoding="utf-8"?>
<svg id="master-artboard" viewBox="0 0 1400 980" version="1.1" xmlns="http://www.w3.org/2000/svg" x="0px" y="0px" style="enable-background:new 0 0 336 235.2;" width="1400px" height="980px"><rect id="ee-background" x="0" y="0" width="1400" height="980" style="fill: white; fill-opacity: 0; pointer-events: none;"/><defs><style id="ee-google-fonts">@import url(https://fonts.googleapis.com/css?family=Audiowide:400);</style></defs>





















































































































































<g transform="matrix(2.6069903373718257, 2.604190111160278, -2.604190111160278, 2.6069903373718257, 698.2845111928168, -797.8577873879303)"><g id="Layer_2_19_" transform="matrix(1, 0, 0, 1, 0, 0)">
	<g id="Layer_1-2_19_">
		<path class="st0" d="M282.5,236.3c2.1,2.1,2.1,5.4,0,7.5c0,0,0,0,0,0l-44.7,44.7c-2.1,2.1-5.4,2.1-7.5,0l-44.7-44.7&#10;&#9;&#9;&#9;c-2.1-2.1-2.1-5.4,0-7.5c0,0,0,0,0,0l44.7-44.7c2.1-2.1,5.4-2.1,7.5,0c0,0,0,0,0,0L282.5,236.3z" style="fill: rgb(162, 173, 166);"/>
	</g>
</g></g><path style="fill: rgb(10, 118, 168); fill-opacity: 1; stroke: rgb(0, 0, 0); stroke-opacity: 1; stroke-width: 0; paint-order: stroke;" d="M 567.7661743164062 301.9659729003906 L 742.6968383789062 302.5975036621094 L 735.7501831054688 369.5384826660156 L 681.4395751953125 427.0066833496094 L 560.18798828125 317.7539367675781 L 567.7661743164062 301.9659729003906 Z"/><path style="fill: rgb(255, 255, 255); fill-opacity: 1; stroke: rgb(255, 233, 224); stroke-opacity: 1; stroke-width: 0; paint-order: stroke;" d="M 547.2332763671875 329.0061340332031 C 547.2332763671875 329.0061340332031 542.8504638671875 299.1235656738281 570.3424682617188 301.51416015625 L 691.0845336914062 422.2562561035156 L 664.6513061523438 448.6894836425781 L 547.2332763671875 329.0061340332031 Z" transform="matrix(1, 0, 0, 1, -0.00003208083398931194, -0.000005532687737286324)"/><path style="fill: rgb(15, 169, 36); fill-opacity: 1; stroke: rgb(0, 0, 0); stroke-opacity: 1; stroke-width: 0; paint-order: fill;" d="M 819.1181030273438 388.4505615234375 L 819.5792846679688 550.7928466796875 C 819.5792846679688 550.7928466796875 820.9629516601562 575.2363891601562 791.9073486328125 572.930419921875 C 762.8517456054688 570.6244506835938 566.8418579101562 572.930419921875 566.8418579101562 572.930419921875 L 813.5836791992188 382.4549560546875 L 819.1181030273438 388.4505615234375 Z"/><path style="fill-opacity: 1; stroke: rgb(0, 0, 0); stroke-opacity: 1; stroke-width: 0; paint-order: fill; fill: rgb(237, 155, 55);" d="M 547.2608032226562 535.4069213867188 L 786.6643676757812 315.5909118652344 L 812.7811279296875 380.8827819824219 L 586.4359741210938 570.229248046875 C 586.4359741210938 570.229248046875 538.824951171875 589.2275390625 547.2608032226562 535.4069213867188 Z" transform="matrix(0.9478714466094972, 0, 0, 0.9478714466094972, 28.554614369947387, 28.45017383858827)"/><g transform="matrix(1.8785207271575928, 0, 0, 2.292233943939209, -461.0956198927123, -185.3335746423088)"><g id="Layer_2_2_" transform="matrix(1, 0, 0, 1, 0, 0)">
	<g id="Layer_1-2_2_">
		<path class="st0" d="M699.8,231c-5.8,14.1-47.1,44.5-47.8,45l0,0c-0.7-0.5-42-30.9-47.8-45s0.5-30.7,14.2-36.7&#10;&#9;&#9;&#9;c12.4-5.4,27-0.6,33.6,11.2c6.7-11.8,21.2-16.6,33.6-11.2C699.3,200.3,705.7,216.8,699.8,231z" style="fill: rgb(255, 28, 36);"/>
	</g>
</g></g></svg>